<mxfile host="app.diagrams.net" modified="2024-04-07T17:26:42.354Z" agent="Mozilla/5.0 (Macintosh; Intel Mac OS X 10_15_7) AppleWebKit/537.36 (KHTML, like Gecko) Chrome/120.0.0.0 Whale/3.24.223.18 Safari/537.36" etag="y4stKlw4BKbkctyztR2h" version="24.2.2" type="github">
  <diagram name="페이지-1" id="J1Tt04icmtqUt2nDNbsf">
    <mxGraphModel dx="524" dy="997" grid="1" gridSize="10" guides="1" tooltips="1" connect="1" arrows="1" fold="1" page="1" pageScale="1" pageWidth="1169" pageHeight="827" math="0" shadow="0">
      <root>
        <mxCell id="0" />
        <mxCell id="1" parent="0" />
        <mxCell id="ob_Er8QgK_pdc9j6Z_gC-9" value="" style="rounded=1;whiteSpace=wrap;html=1;fillColor=#f5f5f5;fontColor=#333333;strokeColor=#666666;" parent="1" vertex="1">
          <mxGeometry x="390" y="55" width="450" height="555" as="geometry" />
        </mxCell>
        <mxCell id="unUFR4Pz0GULnruM20ie-18" style="edgeStyle=orthogonalEdgeStyle;rounded=0;orthogonalLoop=1;jettySize=auto;html=1;entryX=0.5;entryY=0;entryDx=0;entryDy=0;" parent="1" source="ob_Er8QgK_pdc9j6Z_gC-6" target="ob_Er8QgK_pdc9j6Z_gC-7" edge="1">
          <mxGeometry relative="1" as="geometry" />
        </mxCell>
        <mxCell id="ob_Er8QgK_pdc9j6Z_gC-6" value="Inbound&lt;div&gt;(sales-topic)&lt;/div&gt;" style="rounded=0;whiteSpace=wrap;html=1;fillColor=#d5e8d4;strokeColor=#82b366;" parent="1" vertex="1">
          <mxGeometry x="555" y="110" width="120" height="40" as="geometry" />
        </mxCell>
        <mxCell id="unUFR4Pz0GULnruM20ie-17" style="edgeStyle=orthogonalEdgeStyle;rounded=0;orthogonalLoop=1;jettySize=auto;html=1;entryX=0.5;entryY=0;entryDx=0;entryDy=0;" parent="1" source="ob_Er8QgK_pdc9j6Z_gC-7" target="unUFR4Pz0GULnruM20ie-1" edge="1">
          <mxGeometry relative="1" as="geometry" />
        </mxCell>
        <mxCell id="ob_Er8QgK_pdc9j6Z_gC-7" value="filter&lt;div&gt;(supported data store)&lt;/div&gt;" style="rounded=0;whiteSpace=wrap;html=1;fillColor=#e1d5e7;strokeColor=#9673a6;" parent="1" vertex="1">
          <mxGeometry x="553" y="180" width="125" height="40" as="geometry" />
        </mxCell>
        <mxCell id="ob_Er8QgK_pdc9j6Z_gC-13" value="&lt;b&gt;Kafka Streams&lt;/b&gt;&lt;div&gt;&lt;b&gt;(Application)&lt;/b&gt;&lt;/div&gt;" style="text;html=1;align=center;verticalAlign=middle;whiteSpace=wrap;rounded=0;" parent="1" vertex="1">
          <mxGeometry x="560" y="65" width="110" height="30" as="geometry" />
        </mxCell>
        <mxCell id="unUFR4Pz0GULnruM20ie-15" style="edgeStyle=orthogonalEdgeStyle;rounded=0;orthogonalLoop=1;jettySize=auto;html=1;entryX=0.5;entryY=0;entryDx=0;entryDy=0;" parent="1" source="unUFR4Pz0GULnruM20ie-1" target="unUFR4Pz0GULnruM20ie-3" edge="1">
          <mxGeometry relative="1" as="geometry" />
        </mxCell>
        <mxCell id="unUFR4Pz0GULnruM20ie-16" style="edgeStyle=orthogonalEdgeStyle;rounded=0;orthogonalLoop=1;jettySize=auto;html=1;entryX=0.5;entryY=0;entryDx=0;entryDy=0;" parent="1" source="unUFR4Pz0GULnruM20ie-1" target="unUFR4Pz0GULnruM20ie-2" edge="1">
          <mxGeometry relative="1" as="geometry" />
        </mxCell>
        <mxCell id="unUFR4Pz0GULnruM20ie-1" value="Branch&lt;div&gt;(sales type)&lt;/div&gt;" style="rounded=0;whiteSpace=wrap;html=1;fillColor=#e1d5e7;strokeColor=#9673a6;" parent="1" vertex="1">
          <mxGeometry x="555" y="250" width="120" height="40" as="geometry" />
        </mxCell>
        <mxCell id="unUFR4Pz0GULnruM20ie-12" style="edgeStyle=orthogonalEdgeStyle;rounded=0;orthogonalLoop=1;jettySize=auto;html=1;entryX=1;entryY=0.5;entryDx=0;entryDy=0;" parent="1" source="unUFR4Pz0GULnruM20ie-2" target="unUFR4Pz0GULnruM20ie-5" edge="1">
          <mxGeometry relative="1" as="geometry" />
        </mxCell>
        <mxCell id="unUFR4Pz0GULnruM20ie-13" style="edgeStyle=orthogonalEdgeStyle;rounded=0;orthogonalLoop=1;jettySize=auto;html=1;entryX=0.5;entryY=0;entryDx=0;entryDy=0;" parent="1" source="unUFR4Pz0GULnruM20ie-2" target="unUFR4Pz0GULnruM20ie-4" edge="1">
          <mxGeometry relative="1" as="geometry" />
        </mxCell>
        <mxCell id="unUFR4Pz0GULnruM20ie-2" value="Merge" style="rounded=0;whiteSpace=wrap;html=1;fillColor=#e1d5e7;strokeColor=#9673a6;" parent="1" vertex="1">
          <mxGeometry x="555" y="320" width="120" height="40" as="geometry" />
        </mxCell>
        <mxCell id="unUFR4Pz0GULnruM20ie-14" style="edgeStyle=orthogonalEdgeStyle;rounded=0;orthogonalLoop=1;jettySize=auto;html=1;entryX=1;entryY=0.5;entryDx=0;entryDy=0;" parent="1" source="unUFR4Pz0GULnruM20ie-3" target="unUFR4Pz0GULnruM20ie-2" edge="1">
          <mxGeometry relative="1" as="geometry" />
        </mxCell>
        <mxCell id="unUFR4Pz0GULnruM20ie-3" value="Transform&lt;div&gt;(charging fee)&lt;/div&gt;" style="rounded=0;whiteSpace=wrap;html=1;fillColor=#e1d5e7;strokeColor=#9673a6;" parent="1" vertex="1">
          <mxGeometry x="710" y="320" width="120" height="40" as="geometry" />
        </mxCell>
        <mxCell id="unUFR4Pz0GULnruM20ie-9" style="edgeStyle=orthogonalEdgeStyle;rounded=0;orthogonalLoop=1;jettySize=auto;html=1;exitX=0.25;exitY=1;exitDx=0;exitDy=0;entryX=0.5;entryY=0;entryDx=0;entryDy=0;" parent="1" source="unUFR4Pz0GULnruM20ie-4" target="unUFR4Pz0GULnruM20ie-6" edge="1">
          <mxGeometry relative="1" as="geometry" />
        </mxCell>
        <mxCell id="unUFR4Pz0GULnruM20ie-10" style="edgeStyle=orthogonalEdgeStyle;rounded=0;orthogonalLoop=1;jettySize=auto;html=1;exitX=0.75;exitY=1;exitDx=0;exitDy=0;entryX=0.5;entryY=0;entryDx=0;entryDy=0;" parent="1" source="unUFR4Pz0GULnruM20ie-4" target="unUFR4Pz0GULnruM20ie-8" edge="1">
          <mxGeometry relative="1" as="geometry" />
        </mxCell>
        <mxCell id="unUFR4Pz0GULnruM20ie-4" value="Branch&lt;div&gt;(data store)&lt;/div&gt;" style="rounded=0;whiteSpace=wrap;html=1;fillColor=#e1d5e7;strokeColor=#9673a6;" parent="1" vertex="1">
          <mxGeometry x="555" y="393.5" width="120" height="40" as="geometry" />
        </mxCell>
        <mxCell id="unUFR4Pz0GULnruM20ie-5" value="Aggregate&lt;div&gt;(amount)&lt;/div&gt;" style="rounded=0;whiteSpace=wrap;html=1;fillColor=#e1d5e7;strokeColor=#9673a6;" parent="1" vertex="1">
          <mxGeometry x="410" y="320" width="120" height="40" as="geometry" />
        </mxCell>
        <mxCell id="unUFR4Pz0GULnruM20ie-6" value="Outbound&lt;div&gt;(db-store-topic)&lt;/div&gt;" style="rounded=0;whiteSpace=wrap;html=1;fillColor=#dae8fc;strokeColor=#6c8ebf;" parent="1" vertex="1">
          <mxGeometry x="480" y="510" width="120" height="40" as="geometry" />
        </mxCell>
        <mxCell id="unUFR4Pz0GULnruM20ie-7" value="State Store&lt;div&gt;(Rocks DB)&lt;/div&gt;" style="shape=cylinder3;whiteSpace=wrap;html=1;boundedLbl=1;backgroundOutline=1;size=15;fillColor=#fff2cc;strokeColor=#d6b656;" parent="1" vertex="1">
          <mxGeometry x="425" y="393.5" width="90" height="80" as="geometry" />
        </mxCell>
        <mxCell id="unUFR4Pz0GULnruM20ie-8" value="Outbound&lt;div&gt;(es-store-topic)&lt;/div&gt;" style="rounded=0;whiteSpace=wrap;html=1;fillColor=#dae8fc;strokeColor=#6c8ebf;" parent="1" vertex="1">
          <mxGeometry x="630" y="510" width="120" height="40" as="geometry" />
        </mxCell>
        <mxCell id="unUFR4Pz0GULnruM20ie-11" style="edgeStyle=orthogonalEdgeStyle;rounded=0;orthogonalLoop=1;jettySize=auto;html=1;entryX=0.5;entryY=0;entryDx=0;entryDy=0;entryPerimeter=0;" parent="1" source="unUFR4Pz0GULnruM20ie-5" target="unUFR4Pz0GULnruM20ie-7" edge="1">
          <mxGeometry relative="1" as="geometry" />
        </mxCell>
        <mxCell id="unUFR4Pz0GULnruM20ie-19" value="CARD" style="text;html=1;align=center;verticalAlign=middle;whiteSpace=wrap;rounded=0;" parent="1" vertex="1">
          <mxGeometry x="720" y="240" width="60" height="30" as="geometry" />
        </mxCell>
        <mxCell id="unUFR4Pz0GULnruM20ie-20" value="CASH" style="text;html=1;align=center;verticalAlign=middle;whiteSpace=wrap;rounded=0;" parent="1" vertex="1">
          <mxGeometry x="555" y="290" width="60" height="30" as="geometry" />
        </mxCell>
        <mxCell id="unUFR4Pz0GULnruM20ie-21" value="DB" style="text;html=1;align=center;verticalAlign=middle;whiteSpace=wrap;rounded=0;" parent="1" vertex="1">
          <mxGeometry x="525" y="443.5" width="60" height="30" as="geometry" />
        </mxCell>
        <mxCell id="unUFR4Pz0GULnruM20ie-22" value="ES" style="text;html=1;align=center;verticalAlign=middle;whiteSpace=wrap;rounded=0;" parent="1" vertex="1">
          <mxGeometry x="640" y="443.5" width="60" height="30" as="geometry" />
        </mxCell>
      </root>
    </mxGraphModel>
  </diagram>
</mxfile>
